<?xml version='1.0' encoding='UTF-8'?>
<svg xmlns="http://www.w3.org/2000/svg" font-family="ConsolasFallback,Consolas,monospace" width="985px" height="530px" font-size="16px" role="img" aria-label="ahmed@mughram system status">
<style>
@font-face {
  src: local('Consolas'), local('Consolas Bold');
  font-family: 'ConsolasFallback';
  font-display: swap;
  size-adjust: 109%;
}
.key {fill: #ffa657;}
.value {fill: #a5d6ff;}
.cc {fill: #616e7f;}
.addColor {fill: #3fb950;}
.delColor {fill: #f85149;}
.track {fill: #30363d;}
.bar {fill: #3fb950;}
.panelTitle {fill: #c9d1d9; font-size: 14px;}
.panelLabel {fill: #c9d1d9; font-size: 13px;}
.panelValue {fill: #616e7f; font-size: 13px;}
.panelMuted {fill: #4b535e; font-size: 11px;}
.lineStroke {stroke: #3fb950; fill: none;}
.gridStroke {stroke: #30363d;}
.avgStroke {stroke: #a5d6ff; fill: #a5d6ff;}
.gradStop1 {stop-color: #3fb950; stop-opacity: 0.35;}
.gradStop2 {stop-color: #3fb950; stop-opacity: 0;}
text, tspan {white-space: pre;}
</style>
<rect width="985px" height="530px" fill="#161b22" rx="15"/>
<g id="left_panel"><text x="20" y="30" class="panelTitle">- Latest Repositories</text><text x="20" y="64" class="panelLabel">lumon</text><text x="330" y="64" class="panelMuted" text-anchor="end">7 days ago</text><text x="375" y="64" class="cc" text-anchor="end">89</text><clipPath id="lb-clip-74"><rect x="20" y="74" width="355" height="3" rx="1.5"/></clipPath><g clip-path="url(#lb-clip-74)"><rect x="20.00" y="74" width="327.12" height="3" fill="#3572A5"/><rect x="347.12" y="74" width="13.47" height="3" fill="#e34c26"/><rect x="360.59" y="74" width="7.35" height="3" fill="#663399"/><rect x="367.95" y="74" width="3.31" height="3" fill="#f1e05a"/><rect x="371.25" y="74" width="3.21" height="3" fill="#3178c6"/><rect x="374.47" y="74" width="0.40" height="3" fill="#384d54"/><rect x="374.86" y="74" width="0.14" height="3" fill="#7e858d"/></g><text x="20" y="98" class="panelLabel">vstg-website</text><text x="330" y="98" class="panelMuted" text-anchor="end">25 days ago</text><text x="375" y="98" class="cc" text-anchor="end">10</text><clipPath id="lb-clip-108"><rect x="20" y="108" width="355" height="3" rx="1.5"/></clipPath><g clip-path="url(#lb-clip-108)"><rect x="20.00" y="108" width="154.46" height="3" fill="#f1e05a"/><rect x="174.46" y="108" width="102.93" height="3" fill="#663399"/><rect x="277.39" y="108" width="97.61" height="3" fill="#e34c26"/></g><text x="20" y="132" class="panelLabel">VSTG</text><text x="330" y="132" class="panelMuted" text-anchor="end">28 days ago</text><text x="375" y="132" class="cc" text-anchor="end">20</text><clipPath id="lb-clip-142"><rect x="20" y="142" width="355" height="3" rx="1.5"/></clipPath><g clip-path="url(#lb-clip-142)"><rect x="20.00" y="142" width="355.00" height="3" fill="#3572A5"/></g><text x="20" y="166" class="panelLabel">quoted</text><text x="330" y="166" class="panelMuted" text-anchor="end">1 month ago</text><text x="375" y="166" class="cc" text-anchor="end">3</text><clipPath id="lb-clip-176"><rect x="20" y="176" width="355" height="3" rx="1.5"/></clipPath><g clip-path="url(#lb-clip-176)"><rect x="20.00" y="176" width="347.22" height="3" fill="#3178c6"/><rect x="367.22" y="176" width="7.13" height="3" fill="#663399"/><rect x="374.35" y="176" width="0.65" height="3" fill="#f1e05a"/></g><text x="20" y="200" class="panelLabel">_mughram</text><text x="330" y="200" class="panelMuted" text-anchor="end">1 month ago</text><text x="375" y="200" class="cc" text-anchor="end">1</text><clipPath id="lb-clip-210"><rect x="20" y="210" width="355" height="3" rx="1.5"/></clipPath><g clip-path="url(#lb-clip-210)"><rect x="20.00" y="210" width="198.49" height="3" fill="#e34c26"/><rect x="218.49" y="210" width="86.60" height="3" fill="#663399"/><rect x="305.10" y="210" width="69.90" height="3" fill="#f1e05a"/></g><text x="20" y="234" class="panelLabel">entropium-engine</text><text x="330" y="234" class="panelMuted" text-anchor="end">1 month ago</text><text x="375" y="234" class="cc" text-anchor="end">1</text><clipPath id="lb-clip-244"><rect x="20" y="244" width="355" height="3" rx="1.5"/></clipPath><g clip-path="url(#lb-clip-244)"><rect x="20.00" y="244" width="355.00" height="3" fill="#3572A5"/></g><text x="20" y="288" class="panelTitle">- Languages</text><rect x="20" y="314" width="8" height="8" rx="2" fill="#3572A5"/><text x="36" y="322" class="panelLabel">Python</text><text x="190" y="322" class="panelValue" text-anchor="end">62.5%</text><rect x="20" y="348" width="8" height="8" rx="2" fill="#3178c6"/><text x="36" y="356" class="panelLabel">TypeScript</text><text x="190" y="356" class="panelValue" text-anchor="end">14.4%</text><rect x="20" y="382" width="8" height="8" rx="2" fill="#e34c26"/><text x="36" y="390" class="panelLabel">HTML</text><text x="190" y="390" class="panelValue" text-anchor="end">10.5%</text><rect x="20" y="416" width="8" height="8" rx="2" fill="#663399"/><text x="36" y="424" class="panelLabel">CSS</text><text x="190" y="424" class="panelValue" text-anchor="end">7.6%</text><rect x="20" y="450" width="8" height="8" rx="2" fill="#f1e05a"/><text x="36" y="458" class="panelLabel">JavaScript</text><text x="190" y="458" class="panelValue" text-anchor="end">4.8%</text><rect x="20" y="484" width="8" height="8" rx="2" fill="#384d54"/><text x="36" y="492" class="panelLabel">Dockerfile</text><text x="190" y="492" class="panelValue" text-anchor="end">0.1%</text><circle cx="285" cy="401" r="68" fill="none" stroke="#3572A5" stroke-width="26" stroke-dasharray="267.23 160.03" stroke-dashoffset="-0.00" transform="rotate(-90 285 401)"/><circle cx="285" cy="401" r="68" fill="none" stroke="#3178c6" stroke-width="26" stroke-dasharray="61.68 365.58" stroke-dashoffset="-267.23" transform="rotate(-90 285 401)"/><circle cx="285" cy="401" r="68" fill="none" stroke="#e34c26" stroke-width="26" stroke-dasharray="45.02 382.23" stroke-dashoffset="-328.91" transform="rotate(-90 285 401)"/><circle cx="285" cy="401" r="68" fill="none" stroke="#663399" stroke-width="26" stroke-dasharray="32.66 394.60" stroke-dashoffset="-373.93" transform="rotate(-90 285 401)"/><circle cx="285" cy="401" r="68" fill="none" stroke="#f1e05a" stroke-width="26" stroke-dasharray="20.30 406.95" stroke-dashoffset="-406.59" transform="rotate(-90 285 401)"/><circle cx="285" cy="401" r="68" fill="none" stroke="#384d54" stroke-width="26" stroke-dasharray="0.27 426.99" stroke-dashoffset="-426.90" transform="rotate(-90 285 401)"/></g>
<g id="activity_graph"><line x1="390" y1="248" x2="408" y2="248" class="lineStroke" stroke-width="2.5" stroke-linecap="round"/><text x="414" y="251" class="panelMuted">Daily activity</text><line x1="540" y1="248" x2="558" y2="248" class="avgStroke" stroke-width="1.5" stroke-dasharray="5 4"/><text x="564" y="251" class="panelMuted">30-day average</text><rect x="390" y="258" width="550" height="126" rx="6" class="track" fill-opacity="0.35"/><defs><linearGradient id="activityFill" x1="0" y1="0" x2="0" y2="1"><stop offset="0%" class="gradStop1"/><stop offset="100%" class="gradStop2"/></linearGradient></defs><line x1="390" y1="384.00" x2="940" y2="384.00" class="gridStroke" stroke-width="0.75"/><text x="394" y="382.00" class="panelMuted">0</text><line x1="390" y1="362.00" x2="940" y2="362.00" class="gridStroke" stroke-width="0.75"/><text x="394" y="360.00" class="panelMuted">10</text><line x1="390" y1="340.00" x2="940" y2="340.00" class="gridStroke" stroke-width="0.75"/><text x="394" y="338.00" class="panelMuted">19</text><line x1="390" y1="318.00" x2="940" y2="318.00" class="gridStroke" stroke-width="0.75"/><text x="394" y="316.00" class="panelMuted">29</text><line x1="390" y1="296.00" x2="940" y2="296.00" class="gridStroke" stroke-width="0.75"/><text x="394" y="294.00" class="panelMuted">38</text><line x1="390" y1="274.00" x2="940" y2="274.00" class="gridStroke" stroke-width="0.75"/><text x="394" y="272.00" class="panelMuted">48</text><line x1="390.00" y1="258" x2="390.00" y2="384" class="gridStroke" stroke-width="0.75"/><text x="390.00" y="400" class="panelMuted" text-anchor="middle">07/26</text><line x1="484.83" y1="258" x2="484.83" y2="384" class="gridStroke" stroke-width="0.75"/><text x="484.83" y="400" class="panelMuted" text-anchor="middle">07/31</text><line x1="579.66" y1="258" x2="579.66" y2="384" class="gridStroke" stroke-width="0.75"/><text x="579.66" y="400" class="panelMuted" text-anchor="middle">08/05</text><line x1="674.48" y1="258" x2="674.48" y2="384" class="gridStroke" stroke-width="0.75"/><text x="674.48" y="400" class="panelMuted" text-anchor="middle">08/10</text><line x1="769.31" y1="258" x2="769.31" y2="384" class="gridStroke" stroke-width="0.75"/><text x="769.31" y="400" class="panelMuted" text-anchor="middle">08/15</text><line x1="864.14" y1="258" x2="864.14" y2="384" class="gridStroke" stroke-width="0.75"/><text x="864.14" y="400" class="panelMuted" text-anchor="middle">08/20</text><text x="940" y="400" class="panelMuted" text-anchor="end">Today</text><path d="M 390.00 377.12 C 393.16 372.16 402.64 346.95 408.97 347.33 C 415.29 347.72 421.61 376.74 427.93 379.42 C 434.25 382.09 440.57 362.61 446.90 363.38 C 453.22 364.14 459.54 380.56 465.86 384.00 C 472.18 387.44 478.51 384.00 484.83 384.00 C 491.15 384.00 497.47 384.00 503.79 384.00 C 510.11 384.00 516.44 384.00 522.76 384.00 C 529.08 384.00 535.40 384.38 541.72 384.00 C 548.05 383.62 554.37 400.04 560.69 381.71 C 567.01 363.38 573.33 289.28 579.66 274.00 C 585.98 258.72 592.30 277.44 598.62 290.04 C 604.94 302.65 611.26 337.02 617.59 349.62 C 623.91 362.23 630.23 359.94 636.55 365.67 C 642.87 371.40 649.20 380.94 655.52 384.00 C 661.84 387.06 668.16 384.00 674.48 384.00 C 680.80 384.00 687.13 390.49 693.45 384.00 C 699.77 377.51 706.09 347.72 712.41 345.04 C 718.74 342.37 725.06 361.47 731.38 367.96 C 737.70 374.45 744.02 381.33 750.34 384.00 C 756.67 386.67 762.99 384.00 769.31 384.00 C 775.63 384.00 781.95 385.15 788.28 384.00 C 794.60 382.85 800.92 377.12 807.24 377.12 C 813.56 377.12 819.89 382.85 826.21 384.00 C 832.53 385.15 838.85 384.00 845.17 384.00 C 851.49 384.00 857.82 384.00 864.14 384.00 C 870.46 384.00 876.78 384.00 883.10 384.00 C 889.43 384.00 895.75 384.00 902.07 384.00 C 908.39 384.00 914.71 385.53 921.03 384.00 C 927.36 382.47 936.84 376.36 940.00 374.83 L 940.00 384.00 L 390.00 384.00 Z" fill="url(#activityFill)" stroke="none"/><line x1="390" y1="370.71" x2="940" y2="370.71" class="avgStroke" stroke-width="1.5" stroke-dasharray="5 4"/><text x="936" y="366.71" class="avgStroke" text-anchor="end">Avg 5.8</text><path d="M 390.00 377.12 C 393.16 372.16 402.64 346.95 408.97 347.33 C 415.29 347.72 421.61 376.74 427.93 379.42 C 434.25 382.09 440.57 362.61 446.90 363.38 C 453.22 364.14 459.54 380.56 465.86 384.00 C 472.18 387.44 478.51 384.00 484.83 384.00 C 491.15 384.00 497.47 384.00 503.79 384.00 C 510.11 384.00 516.44 384.00 522.76 384.00 C 529.08 384.00 535.40 384.38 541.72 384.00 C 548.05 383.62 554.37 400.04 560.69 381.71 C 567.01 363.38 573.33 289.28 579.66 274.00 C 585.98 258.72 592.30 277.44 598.62 290.04 C 604.94 302.65 611.26 337.02 617.59 349.62 C 623.91 362.23 630.23 359.94 636.55 365.67 C 642.87 371.40 649.20 380.94 655.52 384.00 C 661.84 387.06 668.16 384.00 674.48 384.00 C 680.80 384.00 687.13 390.49 693.45 384.00 C 699.77 377.51 706.09 347.72 712.41 345.04 C 718.74 342.37 725.06 361.47 731.38 367.96 C 737.70 374.45 744.02 381.33 750.34 384.00 C 756.67 386.67 762.99 384.00 769.31 384.00 C 775.63 384.00 781.95 385.15 788.28 384.00 C 794.60 382.85 800.92 377.12 807.24 377.12 C 813.56 377.12 819.89 382.85 826.21 384.00 C 832.53 385.15 838.85 384.00 845.17 384.00 C 851.49 384.00 857.82 384.00 864.14 384.00 C 870.46 384.00 876.78 384.00 883.10 384.00 C 889.43 384.00 895.75 384.00 902.07 384.00 C 908.39 384.00 914.71 385.53 921.03 384.00 C 927.36 382.47 936.84 376.36 940.00 374.83" class="lineStroke" stroke-width="2.25" stroke-linecap="round"/><circle cx="390.00" cy="377.12" r="1.6" class="addColor"/><circle cx="408.97" cy="347.33" r="1.6" class="addColor"/><circle cx="427.93" cy="379.42" r="1.6" class="addColor"/><circle cx="446.90" cy="363.38" r="1.6" class="addColor"/><circle cx="465.86" cy="384.00" r="1.6" class="addColor"/><circle cx="484.83" cy="384.00" r="1.6" class="addColor"/><circle cx="503.79" cy="384.00" r="1.6" class="addColor"/><circle cx="522.76" cy="384.00" r="1.6" class="addColor"/><circle cx="541.72" cy="384.00" r="1.6" class="addColor"/><circle cx="560.69" cy="381.71" r="1.6" class="addColor"/><circle cx="579.66" cy="274.00" r="1.6" class="addColor"/><circle cx="598.62" cy="290.04" r="1.6" class="addColor"/><circle cx="617.59" cy="349.62" r="1.6" class="addColor"/><circle cx="636.55" cy="365.67" r="1.6" class="addColor"/><circle cx="655.52" cy="384.00" r="1.6" class="addColor"/><circle cx="674.48" cy="384.00" r="1.6" class="addColor"/><circle cx="693.45" cy="384.00" r="1.6" class="addColor"/><circle cx="712.41" cy="345.04" r="1.6" class="addColor"/><circle cx="731.38" cy="367.96" r="1.6" class="addColor"/><circle cx="750.34" cy="384.00" r="1.6" class="addColor"/><circle cx="769.31" cy="384.00" r="1.6" class="addColor"/><circle cx="788.28" cy="384.00" r="1.6" class="addColor"/><circle cx="807.24" cy="377.12" r="1.6" class="addColor"/><circle cx="826.21" cy="384.00" r="1.6" class="addColor"/><circle cx="845.17" cy="384.00" r="1.6" class="addColor"/><circle cx="864.14" cy="384.00" r="1.6" class="addColor"/><circle cx="883.10" cy="384.00" r="1.6" class="addColor"/><circle cx="902.07" cy="384.00" r="1.6" class="addColor"/><circle cx="921.03" cy="384.00" r="1.6" class="addColor"/><circle cx="940.00" cy="374.83" r="1.6" class="addColor"/><circle cx="579.66" cy="274.00" r="7" class="addColor" fill-opacity="0.22"/><circle cx="579.66" cy="274.00" r="3.5" class="addColor"/><text x="579.66" y="264.00" class="addColor" text-anchor="middle">48</text><circle cx="465.86" cy="384.00" r="7" class="delColor" fill-opacity="0.22"/><circle cx="465.86" cy="384.00" r="3.5" class="delColor"/><text x="465.86" y="374.00" class="delColor" text-anchor="middle">0</text></g>
<text x="390" y="30" fill="#c9d1d9">
<tspan x="390" y="30">ahmed@mughram</tspan> -———————————————————————————————————————————-—-
<tspan x="390" y="50" class="cc">. </tspan><tspan class="key">Uptime</tspan>:<tspan class="cc" id="uptime_data_dots"> ....................... </tspan><tspan class="value" id="uptime_data">4 years, 10 months, 4 days</tspan>
<tspan x="390" y="70" class="cc">. </tspan><tspan class="key">Career</tspan>:<tspan class="cc"> ............. </tspan><tspan class="value">DSShield (Sys. Admin) – Hirely (Dev)</tspan>
<tspan x="390" y="90" class="cc">. </tspan>
<tspan x="390" y="110" class="cc">. </tspan><tspan class="key">Backend</tspan>:<tspan class="cc"> .......................... </tspan><tspan class="value">Py, TS, uPy, JS, C, C#</tspan>
<tspan x="390" y="130" class="cc">. </tspan><tspan class="key">Frameworks</tspan>:<tspan class="cc"> .................... </tspan><tspan class="value">React, Django, Express.js</tspan>
<tspan x="390" y="150" class="cc">. </tspan><tspan class="key">Databases</tspan>:<tspan class="cc"> ................... </tspan><tspan class="value">SQLite, PostgreSQL, MongoDB</tspan>
<tspan x="390" y="170" class="cc">. </tspan>
<tspan x="390" y="190" class="cc">. </tspan><tspan class="key">Last</tspan>.<tspan class="key">Update</tspan>:<tspan class="cc"> ................... </tspan><tspan class="addColor" id="last_update">2026/08/24 16:11:06 GMT+3</tspan>
<tspan x="390" y="230">- Activity Graph</tspan> -———————————————————————————————————————-—-
<tspan x="390" y="440">- GitHub Stats</tspan> -—————————————————————————————————————————-—-
<tspan x="390" y="460" class="cc">. </tspan><tspan class="key">Repos</tspan>:<tspan class="cc" id="repo_data_dots"> .... </tspan><tspan class="value" id="repo_data">15</tspan> {<tspan class="key">Contributed</tspan>: <tspan class="value" id="contrib_data">15</tspan>} | <tspan class="key">Stars</tspan>:<tspan class="cc" id="star_data_dots"> .............. </tspan><tspan class="value" id="star_data">0</tspan>
<tspan x="390" y="480" class="cc">. </tspan><tspan class="key">Commits</tspan>:<tspan class="cc" id="commit_data_dots"> ................... </tspan><tspan class="value" id="commit_data">158</tspan> | <tspan class="key">Followers</tspan>:<tspan class="cc" id="follower_data_dots"> .......... </tspan><tspan class="value" id="follower_data">4</tspan>
<tspan x="390" y="500" class="cc">. </tspan><tspan class="key">Lines of Code on GitHub</tspan>:<tspan class="cc" id="loc_data_dots">. </tspan><tspan class="value" id="loc_data">67,884</tspan> (<tspan class="cc" id="loc_pad_open">   </tspan><tspan class="addColor" id="loc_add">70,925</tspan><tspan class="addColor">++</tspan>, <tspan class="delColor" id="loc_del">3,041</tspan><tspan class="delColor">--</tspan><tspan class="cc" id="loc_pad_close">   </tspan>)
</text>
</svg>